<?xml version="1.0" encoding="utf-8"?>
<!-- Generator: Adobe Illustrator 16.0.0, SVG Export Plug-In . SVG Version: 6.00 Build 0)  -->
<!DOCTYPE svg PUBLIC "-//W3C//DTD SVG 1.1//EN" "http://www.w3.org/Graphics/SVG/1.1/DTD/svg11.dtd">
<svg version="1.1" id="圖層_1" xmlns="http://www.w3.org/2000/svg" xmlns:xlink="http://www.w3.org/1999/xlink" x="0px" y="0px"
	 width="12px" height="64px" viewBox="0 0 12 64" enable-background="new 0 0 12 64" xml:space="preserve">
<g>
	<g>
		<path fill="#E8BB07" d="M6,9.547c-0.561,0-1.03-0.194-1.41-0.585c-0.38-0.39-0.569-0.885-0.569-1.485
			c0-0.6,0.194-1.104,0.585-1.515C4.995,5.553,5.46,5.347,6,5.347c0.58,0,1.055,0.206,1.425,0.615
			c0.37,0.41,0.556,0.915,0.556,1.515c0,0.6-0.19,1.095-0.57,1.485C7.03,9.353,6.56,9.547,6,9.547z"/>
		<path fill="#E8BB07" d="M6,19.297c-0.561,0-1.03-0.194-1.41-0.585c-0.38-0.39-0.569-0.885-0.569-1.484
			c0-0.601,0.194-1.105,0.585-1.516C4.995,15.303,5.46,15.098,6,15.098c0.58,0,1.055,0.205,1.425,0.614
			c0.37,0.41,0.556,0.915,0.556,1.516c0,0.6-0.19,1.095-0.57,1.484C7.03,19.103,6.56,19.297,6,19.297z"/>
		<path fill="#E8BB07" d="M6,29.047c-0.561,0-1.03-0.194-1.41-0.585c-0.38-0.39-0.569-0.885-0.569-1.484
			c0-0.601,0.194-1.105,0.585-1.516C4.995,25.053,5.46,24.848,6,24.848c0.58,0,1.055,0.205,1.425,0.614
			c0.37,0.41,0.556,0.915,0.556,1.516c0,0.6-0.19,1.095-0.57,1.484C7.03,28.853,6.56,29.047,6,29.047z"/>
		<path fill="#E8BB07" d="M6,38.797c-0.561,0-1.03-0.194-1.41-0.585c-0.38-0.39-0.569-0.885-0.569-1.484
			c0-0.601,0.194-1.105,0.585-1.516C4.995,34.803,5.46,34.598,6,34.598c0.58,0,1.055,0.205,1.425,0.614
			c0.37,0.41,0.556,0.915,0.556,1.516c0,0.6-0.19,1.095-0.57,1.484C7.03,38.603,6.56,38.797,6,38.797z"/>
		<path fill="#E8BB07" d="M6,48.547c-0.561,0-1.03-0.194-1.41-0.585c-0.38-0.39-0.569-0.885-0.569-1.484
			c0-0.601,0.194-1.105,0.585-1.516C4.995,44.553,5.46,44.348,6,44.348c0.58,0,1.055,0.205,1.425,0.614
			c0.37,0.41,0.556,0.915,0.556,1.516c0,0.6-0.19,1.095-0.57,1.484C7.03,48.353,6.56,48.547,6,48.547z"/>
		<path fill="#E8BB07" d="M6,58.297c-0.561,0-1.03-0.194-1.41-0.585c-0.38-0.39-0.569-0.885-0.569-1.484
			c0-0.601,0.194-1.105,0.585-1.516C4.995,54.303,5.46,54.098,6,54.098c0.58,0,1.055,0.205,1.425,0.614
			c0.37,0.41,0.556,0.915,0.556,1.516c0,0.6-0.19,1.095-0.57,1.484C7.03,58.103,6.56,58.297,6,58.297z"/>
	</g>
</g>
</svg>
